<svg xmlns="http://www.w3.org/2000/svg" version="1.1" xmlns:xlink="http://www.w3.org/1999/xlink" xmlns:svgjs="http://svgjs.dev/svgjs" width="128" height="128" viewBox="0 0 128 128"><g transform="matrix(0.8046875,0,0,0.8046875,12.333870967741937,35.09953948561412)"><svg viewBox="0 0 155 88" data-background-color="#000000" preserveAspectRatio="xMidYMid meet" height="72" width="128" xmlns="http://www.w3.org/2000/svg" xmlns:xlink="http://www.w3.org/1999/xlink"><g id="tight-bounds" transform="matrix(1,0,0,1,0.25,-0.10372340425531945)"><svg viewBox="0 0 154.5 88.20744680851064" height="88.20744680851064" width="154.5"><g><svg viewBox="0 0 154.5 88.20744680851064" height="88.20744680851064" width="154.5"><g><svg viewBox="0 0 154.5 88.20744680851064" height="88.20744680851064" width="154.5"><g id="textblocktransform"><svg viewBox="0 0 154.5 88.20744680851064" height="88.20744680851064" width="154.5" id="textblock"><g><svg viewBox="0 0 154.5 88.20744680851064" height="88.20744680851064" width="154.5"><g transform="matrix(1,0,0,1,0,0)"><svg width="154.5" viewBox="2 -24.15 42.3 24.15" height="88.20744680851064" data-palette-color="url(#a418b022-ff94-40fc-9a51-3837201c725f)"><g class="wordmark-text-0" data-fill-palette-color="primary" id="text-0"></g></svg></g></svg></g></svg></g></svg></g></svg></g><defs></defs><mask id="8fe3c789-b50a-4a6d-8ae8-eaccf19dbf1b"><g id="SvgjsG4403"><svg viewBox="0 0 154.5 88.20744680851064" height="88.20744680851064" width="154.5"><g><svg viewBox="0 0 154.5 88.20744680851064" height="88.20744680851064" width="154.5"><g><svg viewBox="0 0 154.5 88.20744680851064" height="88.20744680851064" width="154.5"><g id="SvgjsG4402"><svg viewBox="0 0 154.5 88.20744680851064" height="88.20744680851064" width="154.5" id="SvgjsSvg4401"><g><svg viewBox="0 0 154.5 88.20744680851064" height="88.20744680851064" width="154.5"><g transform="matrix(1,0,0,1,0,0)"><svg width="154.5" viewBox="2 -24.15 42.3 24.15" height="88.20744680851064" data-palette-color="url(#a418b022-ff94-40fc-9a51-3837201c725f)"><g class="wordmark-text-0" data-fill-palette-color="primary" id="SvgjsG4400"><path d="M3-15.05L2-20.55 3.55-23.6 13-23.6 13-21.45 13.45-21.15Q14-21.65 14.98-22.33 15.95-23 17.32-23.55 18.7-24.1 20.5-24.1L20.5-24.1Q24.85-24.1 26.85-21.1L26.85-21.1Q27.95-22.3 29.63-23.23 31.3-24.15 33.75-24.15L33.75-24.15Q38.25-24.15 40.75-21.6 43.25-19.05 43.25-14.45L43.25-14.45 43.25-8.05 44.3-3.05 43.25 0 32.2 0 32.2-12.6Q32.2-14.2 31.78-14.88 31.35-15.55 30.35-15.55L30.35-15.55Q29.4-15.55 28.95-14.7 28.5-13.85 28.5-12.55L28.5-12.55 28.5 0 17.45 0 17.45-12.65Q17.45-14.15 16.78-14.88 16.1-15.6 14.5-15.6L14.5-15.6 14-15.1 14 0 3 0 3-15.05Z" fill="white"></path></g></svg></g></svg></g></svg></g></svg></g></svg></g><defs><mask></mask></defs></svg><rect width="154.5" height="88.20744680851064" fill="black" stroke="none" visibility="hidden"></rect></g></mask><linearGradient x1="0" x2="1" y1="0.548" y2="0.55" id="a418b022-ff94-40fc-9a51-3837201c725f"><stop stop-color="#ff6cab" offset="0"></stop><stop stop-color="#7366ff" offset="1"></stop></linearGradient><rect width="154.5" height="88.20744680851064" fill="url(#a418b022-ff94-40fc-9a51-3837201c725f)" mask="url(#8fe3c789-b50a-4a6d-8ae8-eaccf19dbf1b)" data-fill-palette-color="primary"></rect></svg><rect width="154.5" height="88.20744680851064" fill="none" stroke="none" visibility="hidden"></rect></g></svg></g></svg>