<svg xmlns="http://www.w3.org/2000/svg" version="1.1" xmlns:xlink="http://www.w3.org/1999/xlink" xmlns:svgjs="http://svgjs.dev/svgjs" width="2000" height="686" viewBox="0 0 2000 686"><g transform="matrix(1,0,0,1,-1.2121212121212466,-0.8013041368126892)"><svg viewBox="0 0 396 136" data-background-color="#000000" preserveAspectRatio="xMidYMid meet" height="686" width="2000" xmlns="http://www.w3.org/2000/svg" xmlns:xlink="http://www.w3.org/1999/xlink"><g id="tight-bounds" transform="matrix(1,0,0,1,0.2400000000000091,0.15885912916402845)"><svg viewBox="0 0 395.52 135.68228174167194" height="135.68228174167194" width="395.52"><g><svg viewBox="0 0 395.52 135.68228174167194" height="135.68228174167194" width="395.52"><g><svg viewBox="0 0 395.52 135.68228174167194" height="135.68228174167194" width="395.52"><g id="textblocktransform"><svg viewBox="0 0 395.52 135.68228174167194" height="135.68228174167194" width="395.52" id="textblock"><g><svg viewBox="0 0 395.52 87.28560069144339" height="87.28560069144339" width="395.52"><g transform="matrix(1,0,0,1,0,0)"><svg width="395.52" viewBox="2 -37.8 173.54 38.3" height="87.28560069144339" data-palette-color="url(#b947ecbb-33c3-40e7-86af-555c2e05bee8)"><g class="wordmark-text-0" data-fill-palette-color="primary" id="text-0"></g></svg></g></svg></g><g transform="matrix(1,0,0,1,0,107.89163616027659)"><svg viewBox="0 0 232.209792 27.79064558139535" height="27.79064558139535" width="232.209792"><g transform="matrix(1,0,0,1,0,0)"><svg width="232.209792" viewBox="2.05 -35 367.62 44" height="27.79064558139535" data-palette-color="url(#3eaec1cd-5574-4515-b22f-4f80d1c86fb7)"></svg></g></svg></g></svg></g></svg></g></svg></g><defs></defs><mask id="7c8f9588-5887-486e-8b86-498d91f7e65b"><g id="SvgjsG1201"><svg viewBox="0 0 395.52 135.68228174167194" height="135.68228174167194" width="395.52"><g><svg viewBox="0 0 395.52 135.68228174167194" height="135.68228174167194" width="395.52"><g><svg viewBox="0 0 395.52 135.68228174167194" height="135.68228174167194" width="395.52"><g id="SvgjsG1200"><svg viewBox="0 0 395.52 135.68228174167194" height="135.68228174167194" width="395.52" id="SvgjsSvg1199"><g><svg viewBox="0 0 395.52 87.28560069144339" height="87.28560069144339" width="395.52"><g transform="matrix(1,0,0,1,0,0)"><svg width="395.52" viewBox="2 -37.8 173.54 38.3" height="87.28560069144339" data-palette-color="url(#b947ecbb-33c3-40e7-86af-555c2e05bee8)"><g class="wordmark-text-0" data-fill-palette-color="primary" id="SvgjsG1198"><path d="M3-15.05L2-20.55 3.55-23.6 13-23.6 13-21.45 13.45-21.15Q14-21.65 14.98-22.33 15.95-23 17.32-23.55 18.7-24.1 20.5-24.1L20.5-24.1Q24.85-24.1 26.85-21.1L26.85-21.1Q27.95-22.3 29.63-23.23 31.3-24.15 33.75-24.15L33.75-24.15Q38.25-24.15 40.75-21.6 43.25-19.05 43.25-14.45L43.25-14.45 43.25-8.05 44.3-3.05 43.25 0 32.2 0 32.2-12.6Q32.2-14.2 31.78-14.88 31.35-15.55 30.35-15.55L30.35-15.55Q29.4-15.55 28.95-14.7 28.5-13.85 28.5-12.55L28.5-12.55 28.5 0 17.45 0 17.45-12.65Q17.45-14.15 16.78-14.88 16.1-15.6 14.5-15.6L14.5-15.6 14-15.1 14 0 3 0 3-15.05ZM59.8 0.5L59.8 0.5Q53.7 0.5 50.1-2.4 46.5-5.3 46.5-11.8L46.5-11.8Q46.5-18.35 50.1-21.23 53.7-24.1 59.8-24.1L59.8-24.1Q66.1-24.1 69.55-21.23 73-18.35 73-11.8L73-11.8Q73-5.3 69.55-2.4 66.1 0.5 59.8 0.5ZM59.8-7.5L59.8-7.5Q60.75-7.5 61.35-8.28 61.95-9.05 61.95-11.8L61.95-11.8Q61.95-14.6 61.37-15.35 60.8-16.1 59.8-16.1L59.8-16.1Q58.85-16.1 58.2-15.35 57.55-14.6 57.55-11.8L57.55-11.8Q57.55-9.05 58.2-8.28 58.85-7.5 59.8-7.5ZM87.7 0L76.7 0 76.7-27.4 75.7-32.4 76.7-35.4 87.7-35.4 87.7-27.3 87.2-21.75 87.7-21.5Q87.95-21.75 88.8-22.38 89.65-23 91.05-23.58 92.45-24.15 94.2-24.15L94.2-24.15Q98.7-24.15 100.45-21.6 102.2-19.05 102.2-14.45L102.2-14.45 102.2-7.95 103.25-3.05 102.2 0 91.15 0 91.15-12.65Q91.15-14.25 90.5-14.93 89.84-15.6 88.2-15.6L88.2-15.6 87.7-15.1 87.7 0ZM117.69 0.5L117.69 0.5Q113.44 0.5 110.74-0.23 108.04-0.95 106.39-1.8L106.39-1.8 106.39-10.25Q108.49-9 111.24-8.25 113.99-7.5 116.19-7.5L116.19-7.5Q116.99-7.5 117.29-7.7 117.59-7.9 117.59-8.3L117.59-8.3Q117.59-8.7 116.62-9.18 115.64-9.65 113.29-10.35L113.29-10.35Q111.44-10.95 109.74-11.65 108.04-12.35 106.99-13.5 105.94-14.65 105.94-16.55L105.94-16.55Q105.94-19.45 107.42-21.1 108.89-22.75 111.52-23.43 114.14-24.1 117.49-24.1L117.49-24.1Q119.39-24.1 121.32-23.9 123.24-23.7 123.94-23.6L123.94-23.6 128.59-21.1 126.34-14.25 118.54-16.15Q116.94-16.15 116.94-15.4L116.94-15.4Q116.94-14.55 119.24-13.95L119.24-13.95Q121.59-13.3 123.84-12.55 126.09-11.8 127.54-10.53 128.99-9.25 128.99-7L128.99-7Q128.99-3.2 125.99-1.35 122.99 0.5 117.69 0.5ZM146.04-31.45L138.64-25.05 131.24-31.45 138.64-37.8 146.04-31.45ZM144.09 0L133.09 0 133.09-16.55 132.04-20.55 133.04-23.6 144.09-23.6 144.09 0ZM160.04 0L149.04 0 149.04-15.05 148.04-20.55 149.59-23.6 159.04-23.6 159.04-21.45 159.49-21.15Q160.04-21.65 161.01-22.33 161.99-23 163.39-23.55 164.79-24.1 166.54-24.1L166.54-24.1Q170.64-24.1 172.59-21.55 174.54-19 174.54-14.4L174.54-14.4 174.54-8 175.54-3 174.54 0 163.49 0 163.49-12.65Q163.49-14.15 162.81-14.88 162.14-15.6 160.54-15.6L160.54-15.6 160.04-15.1 160.04 0Z" fill="white"></path></g></svg></g></svg></g><g transform="matrix(1,0,0,1,0,107.89163616027659)"><svg viewBox="0 0 232.209792 27.79064558139535" height="27.79064558139535" width="232.209792"><g transform="matrix(1,0,0,1,0,0)"><svg width="232.209792" viewBox="2.05 -35 367.62 44" height="27.79064558139535" data-palette-color="url(#3eaec1cd-5574-4515-b22f-4f80d1c86fb7)"><path d="M2.05-25.05L12.7-25.05 12.3-6.5 12.6-6.5Q13.35-6.5 13.83-7.3 14.3-8.1 14.7-9.8L14.7-9.8Q14.95-10.7 15.18-11.83 15.4-12.95 15.6-14.35L15.6-14.35Q15.8-15.45 15.98-16.7 16.15-17.95 16.35-19.38 16.55-20.8 16.8-22.4L16.8-22.4Q16.9-23.25 17.63-24.13 18.35-25 19.9-25L19.9-25 28.5-25Q29.7-25 30.5-24.25 31.3-23.5 31.35-22.35L31.35-22.35 31.5-6.5 31.85-6.5Q32.8-6.5 33.1-7.6 33.4-8.7 33.75-10.4L33.75-10.4Q34.1-11.95 34.33-13.33 34.55-14.7 34.75-16.1L34.75-16.1Q35.05-18.05 35.27-20.18 35.5-22.3 35.7-25L35.7-25 46.1-25Q45.9-23.25 45.65-21.5 45.4-19.75 45.1-18.05 44.8-16.35 44.4-14.7L44.4-14.7Q43.9-12.4 43.28-10.28 42.65-8.15 41.95-6.4L41.95-6.4Q41.05-4.15 39.83-2.73 38.6-1.3 36.55-0.65 34.5 0 30.95 0L30.95 0 27.1 0Q25.85 0 25-0.83 24.15-1.65 24.15-2.8L24.15-2.8 24.25-18.8 23.65-18.8Q23.6-18.4 23.48-17.45 23.35-16.5 23.15-15.28 22.95-14.05 22.7-12.65L22.7-12.65Q22.55-11.7 22.35-10.7 22.15-9.7 21.95-8.8 21.75-7.9 21.55-7.1L21.55-7.1Q20.65-3.7 19.2-2.2 17.75-0.7 15.8-0.35 13.85 0 11.3 0L11.3 0 5.8 0Q4.55 0 3.75-0.83 2.95-1.65 2.85-2.8L2.85-2.8 2.05-25.05ZM62.55-25.7L62.55-25.7Q67.75-25.7 70.6-24.63 73.45-23.55 74.42-21.5 75.4-19.45 74.95-16.4L74.95-16.4Q74.65-14.15 73.4-12.9 72.15-11.65 69.92-11.05 67.7-10.45 64.3-10.2L64.3-10.2 51-9.2 51.65-14.15 61.55-15.15Q62.6-15.25 63.3-15.43 64-15.6 64.42-16.05 64.85-16.5 64.95-17.45L64.95-17.45Q65-18 64.85-18.35 64.7-18.7 64.2-18.85 63.7-19 62.65-18.95L62.65-18.95Q61.6-18.95 60.9-18.68 60.2-18.4 59.75-17.78 59.3-17.15 58.97-16 58.65-14.85 58.35-13.05L58.35-13.05Q57.95-10.6 58.07-9.4 58.2-8.2 59.05-7.83 59.9-7.45 61.6-7.45L61.6-7.45Q62.65-7.45 64.47-7.53 66.3-7.6 68.32-7.73 70.35-7.85 71.85-8L71.85-8 72.55-1.6Q70.8-0.8 68.8-0.3 66.8 0.2 64.75 0.4 62.7 0.6 60.7 0.6L60.7 0.6Q55 0.6 51.95-0.95 48.9-2.5 47.9-5.48 46.9-8.45 47.3-12.7L47.3-12.7Q47.7-16.7 48.9-19.25 50.1-21.8 52-23.2 53.9-24.6 56.55-25.15 59.2-25.7 62.55-25.7ZM97.7-25.7L97.7-25.7Q100.8-25.7 102.62-24.25 104.45-22.8 105.02-19.85 105.59-16.9 104.9-12.4L104.9-12.4Q104.55-9.95 103.72-7.63 102.9-5.3 101.3-3.45 99.7-1.6 97.02-0.5 94.34 0.6 90.25 0.6L90.25 0.6Q88.84 0.6 86.87 0.48 84.9 0.35 82.8 0.1 80.7-0.15 78.9-0.55 77.09-0.95 76.05-1.5L76.05-1.5 84.75-7.05Q85.2-6.85 86.09-6.7 87-6.55 88.02-6.48 89.05-6.4 89.75-6.45L89.75-6.45Q90.75-6.5 91.45-6.83 92.15-7.15 92.67-7.88 93.2-8.6 93.57-9.9 93.95-11.2 94.25-13.15L94.25-13.15Q94.55-14.95 94.52-15.9 94.5-16.85 94.15-17.2 93.8-17.55 93-17.55L93-17.55Q91.3-17.55 89.97-16.78 88.65-16 87.2-15L87.2-15 85.84-18.35Q86.8-19.9 88.02-21.23 89.25-22.55 90.72-23.55 92.2-24.55 93.95-25.13 95.7-25.7 97.7-25.7ZM80.75-35L91.3-35 90.5-28.85Q90.3-27 89.87-25.23 89.45-23.45 88.59-21.5L88.59-21.5 89.5-21.1 86.55-1 76.05-1.5 80.75-35ZM128.84-25.7L128.84-25.7Q132.94-25.7 136.39-25.13 139.84-24.55 141.64-23.25L141.64-23.25 140.69-19.35Q138.94-19.35 137.42-19.35 135.89-19.35 133.39-19.35L133.39-19.35Q132.29-19.35 131.54-19.13 130.79-18.9 130.31-18.3 129.84-17.7 129.52-16.55 129.19-15.4 128.94-13.5L128.94-13.5Q128.74-11.7 128.64-10.48 128.54-9.25 128.89-8.65 129.24-8.05 130.24-8.1L130.24-8.1Q131.84-8.2 133.12-9 134.39-9.8 135.44-10.6L135.44-10.6 137.34-6.3Q136.74-5.6 135.62-4.45 134.49-3.3 132.97-2.15 131.44-1 129.64-0.2 127.84 0.6 125.79 0.6L125.79 0.6Q122.69 0.6 120.82-0.93 118.94-2.45 118.29-5.53 117.64-8.6 118.24-13.2L118.24-13.2Q118.74-16.95 119.72-19.4 120.69-21.85 122.07-23.23 123.44-24.6 125.17-25.15 126.89-25.7 128.84-25.7ZM138.09-35L148.59-35 143.64 0 135.34 0 135.04-6.7 134.09-7.25 136.39-24.2 136.84-25Q136.84-26.25 136.92-27.55 136.99-28.85 137.19-30.25L137.19-30.25 138.09-35ZM164.19-25.7L164.19-25.7Q169.39-25.7 172.24-24.63 175.09-23.55 176.06-21.5 177.04-19.45 176.59-16.4L176.59-16.4Q176.29-14.15 175.04-12.9 173.79-11.65 171.56-11.05 169.34-10.45 165.94-10.2L165.94-10.2 152.64-9.2 153.29-14.15 163.19-15.15Q164.24-15.25 164.94-15.43 165.64-15.6 166.06-16.05 166.49-16.5 166.59-17.45L166.59-17.45Q166.64-18 166.49-18.35 166.34-18.7 165.84-18.85 165.34-19 164.29-18.95L164.29-18.95Q163.24-18.95 162.54-18.68 161.84-18.4 161.39-17.78 160.94-17.15 160.61-16 160.29-14.85 159.99-13.05L159.99-13.05Q159.59-10.6 159.71-9.4 159.84-8.2 160.69-7.83 161.54-7.45 163.24-7.45L163.24-7.45Q164.29-7.45 166.11-7.53 167.94-7.6 169.96-7.73 171.99-7.85 173.49-8L173.49-8 174.19-1.6Q172.44-0.8 170.44-0.3 168.44 0.2 166.39 0.4 164.34 0.6 162.34 0.6L162.34 0.6Q156.64 0.6 153.59-0.95 150.54-2.5 149.54-5.48 148.54-8.45 148.94-12.7L148.94-12.7Q149.34-16.7 150.54-19.25 151.74-21.8 153.64-23.2 155.54-24.6 158.19-25.15 160.84-25.7 164.19-25.7ZM196.34-25L207.79-25Q207.54-23.15 207.14-21.23 206.74-19.3 206.29-17.53 205.84-15.75 205.34-14.3L205.34-14.3Q204.29-11.05 203.19-8.68 202.09-6.3 201.49-5.2L201.49-5.2Q200.24-2.95 198.86-1.85 197.49-0.75 195.79-0.38 194.09 0 191.74 0L191.74 0 184.34 0Q183.14 0 182.31-0.78 181.49-1.55 181.39-2.65L181.39-2.65 178.74-25 190.24-25 190.09-6.3 190.54-6.3Q191.59-6.3 192.04-6.93 192.49-7.55 193.29-9.5L193.29-9.5Q193.84-10.9 194.26-12.4 194.69-13.9 195.09-15.9L195.09-15.9Q195.64-18.45 195.91-20.95 196.19-23.45 196.34-25L196.34-25ZM223.78-25.7L223.78-25.7Q228.98-25.7 231.83-24.63 234.68-23.55 235.66-21.5 236.63-19.45 236.18-16.4L236.18-16.4Q235.88-14.15 234.63-12.9 233.38-11.65 231.16-11.05 228.93-10.45 225.53-10.2L225.53-10.2 212.23-9.2 212.88-14.15 222.78-15.15Q223.83-15.25 224.53-15.43 225.23-15.6 225.66-16.05 226.08-16.5 226.18-17.45L226.18-17.45Q226.23-18 226.08-18.35 225.93-18.7 225.43-18.85 224.93-19 223.88-18.95L223.88-18.95Q222.83-18.95 222.13-18.68 221.43-18.4 220.98-17.78 220.53-17.15 220.21-16 219.88-14.85 219.58-13.05L219.58-13.05Q219.18-10.6 219.31-9.4 219.43-8.2 220.28-7.83 221.13-7.45 222.83-7.45L222.83-7.45Q223.88-7.45 225.71-7.53 227.53-7.6 229.56-7.73 231.58-7.85 233.08-8L233.08-8 233.78-1.6Q232.03-0.8 230.03-0.3 228.03 0.2 225.98 0.4 223.93 0.6 221.93 0.6L221.93 0.6Q216.23 0.6 213.18-0.95 210.13-2.5 209.13-5.48 208.13-8.45 208.53-12.7L208.53-12.7Q208.93-16.7 210.13-19.25 211.33-21.8 213.23-23.2 215.13-24.6 217.78-25.15 220.43-25.7 223.78-25.7ZM242.08-35L252.53-35 248.78-8.9Q248.58-7.95 248.98-7.63 249.38-7.3 250.73-7.3L250.73-7.3 252.73-7.3 253.33-0.5Q252.53-0.05 251.16 0.2 249.78 0.45 248.41 0.58 247.03 0.7 246.18 0.7L246.18 0.7Q241.98 0.7 239.81-1.25 237.63-3.2 238.03-6.5L238.03-6.5 242.08-35ZM271.08-25.7L271.08-25.7Q276.08-25.7 279.15-24.35 282.23-23 283.38-20.03 284.53-17.05 283.83-12.05L283.83-12.05Q283.18-7.35 281.5-4.58 279.83-1.8 276.73-0.6 273.63 0.6 268.63 0.6L268.63 0.6Q263.68 0.6 260.58-0.73 257.48-2.05 256.28-5 255.08-7.95 255.78-12.85L255.78-12.85Q256.48-17.65 258.13-20.45 259.78-23.25 262.93-24.48 266.08-25.7 271.08-25.7ZM270.88-18.6L270.88-18.6Q269.53-18.6 268.78-18.1 268.03-17.6 267.58-16.2 267.13-14.8 266.73-12.05L266.73-12.05Q266.43-9.75 266.45-8.55 266.48-7.35 267.1-6.93 267.73-6.5 269.03-6.5L269.03-6.5Q270.33-6.5 271.03-7 271.73-7.5 272.15-8.88 272.58-10.25 272.98-12.85L272.98-12.85Q273.33-15.25 273.28-16.48 273.23-17.7 272.68-18.15 272.13-18.6 270.88-18.6ZM307.48-25.6L307.48-25.6Q310.33-25.6 312.08-24.03 313.83-22.45 314.45-19.4 315.08-16.35 314.48-11.8L314.48-11.8Q313.98-7.9 312.93-5.45 311.88-3 310.38-1.68 308.88-0.35 306.98 0.18 305.08 0.7 302.83 0.7L302.83 0.7Q301.63 0.7 300 0.58 298.38 0.45 296.65 0.18 294.93-0.1 293.45-0.58 291.98-1.05 291.08-1.75L291.08-1.75 292.08-5.65Q293.83-5.65 295.35-5.65 296.88-5.65 299.33-5.65L299.33-5.65Q300.58-5.65 301.33-5.9 302.08-6.15 302.5-6.78 302.93-7.4 303.2-8.55 303.48-9.7 303.73-11.5L303.73-11.5Q304.08-13.95 304.1-15.25 304.13-16.55 303.78-17.05 303.43-17.55 302.63-17.55L302.63-17.55Q301.83-17.55 300.85-17.1 299.88-16.65 298.98-15.93 298.08-15.2 297.48-14.35L297.48-14.35 295.58-18.35Q296.08-19.1 297.15-20.3 298.23-21.5 299.8-22.73 301.38-23.95 303.33-24.78 305.28-25.6 307.48-25.6ZM289.08-25L297.43-25 297.43-18.7 298.53-17.9 296.48-1.35 295.93-0.55Q295.98 0.7 295.9 1.98 295.83 3.25 295.58 4.7L295.58 4.7 294.88 9 284.38 9 289.08-25ZM332.52-25.7L332.52-25.7Q337.72-25.7 340.57-24.63 343.42-23.55 344.4-21.5 345.37-19.45 344.92-16.4L344.92-16.4Q344.62-14.15 343.37-12.9 342.12-11.65 339.9-11.05 337.67-10.45 334.27-10.2L334.27-10.2 320.97-9.2 321.62-14.15 331.52-15.15Q332.57-15.25 333.27-15.43 333.97-15.6 334.4-16.05 334.82-16.5 334.92-17.45L334.92-17.45Q334.97-18 334.82-18.35 334.67-18.7 334.17-18.85 333.67-19 332.62-18.95L332.62-18.95Q331.57-18.95 330.87-18.68 330.17-18.4 329.72-17.78 329.27-17.15 328.95-16 328.62-14.85 328.32-13.05L328.32-13.05Q327.92-10.6 328.05-9.4 328.17-8.2 329.02-7.83 329.87-7.45 331.57-7.45L331.57-7.45Q332.62-7.45 334.45-7.53 336.27-7.6 338.3-7.73 340.32-7.85 341.82-8L341.82-8 342.52-1.6Q340.77-0.8 338.77-0.3 336.77 0.2 334.72 0.4 332.67 0.6 330.67 0.6L330.67 0.6Q324.97 0.6 321.92-0.95 318.87-2.5 317.87-5.48 316.87-8.45 317.27-12.7L317.27-12.7Q317.67-16.7 318.87-19.25 320.07-21.8 321.97-23.2 323.87-24.6 326.52-25.15 329.17-25.7 332.52-25.7ZM349.37-25L357.57-25 358.07-19.9 359.02-19.3 356.42 0 345.87 0 349.37-25ZM367.87-25.7L369.67-25.7 367.52-16.1 365.17-16.1Q363.82-16.1 362.17-15.95 360.52-15.8 357.82-15.35L357.82-15.35 357.42-21.2Q360.17-23.55 362.82-24.63 365.47-25.7 367.87-25.7L367.87-25.7Z" opacity="1" transform="matrix(1,0,0,1,0,0)" fill="black" class="slogan-text-1" id="SvgjsPath1197"></path></svg></g></svg></g></svg></g></svg></g></svg></g><defs><mask></mask></defs></svg><rect width="395.52" height="135.68228174167194" fill="black" stroke="none" visibility="hidden"></rect></g></mask><linearGradient x1="0" x2="1" y1="0.548" y2="0.55" id="b947ecbb-33c3-40e7-86af-555c2e05bee8"><stop stop-color="#ff6cab" offset="0"></stop><stop stop-color="#7366ff" offset="1"></stop></linearGradient><rect width="395.52" height="135.68228174167194" fill="url(#b947ecbb-33c3-40e7-86af-555c2e05bee8)" mask="url(#7c8f9588-5887-486e-8b86-498d91f7e65b)" data-fill-palette-color="primary"></rect><mask id="07215a68-a0c8-4d8e-be82-14a68800930a"><g id="SvgjsG1211"><svg viewBox="0 0 395.52 135.68228174167194" height="135.68228174167194" width="395.52"><g><svg viewBox="0 0 395.52 135.68228174167194" height="135.68228174167194" width="395.52"><g><svg viewBox="0 0 395.52 135.68228174167194" height="135.68228174167194" width="395.52"><g id="SvgjsG1210"><svg viewBox="0 0 395.52 135.68228174167194" height="135.68228174167194" width="395.52" id="SvgjsSvg1209"><g><svg viewBox="0 0 395.52 87.28560069144339" height="87.28560069144339" width="395.52"><g transform="matrix(1,0,0,1,0,0)"><svg width="395.52" viewBox="2 -37.8 173.54 38.3" height="87.28560069144339" data-palette-color="url(#b947ecbb-33c3-40e7-86af-555c2e05bee8)"><g class="wordmark-text-0" data-fill-palette-color="primary" id="SvgjsG1208"></g></svg></g></svg></g><g transform="matrix(1,0,0,1,0,107.89163616027659)"><svg viewBox="0 0 232.209792 27.79064558139535" height="27.79064558139535" width="232.209792"><g transform="matrix(1,0,0,1,0,0)"><svg width="232.209792" viewBox="2.05 -35 367.62 44" height="27.79064558139535" data-palette-color="url(#3eaec1cd-5574-4515-b22f-4f80d1c86fb7)"><path d="M2.05-25.05L12.7-25.05 12.3-6.5 12.6-6.5Q13.35-6.5 13.83-7.3 14.3-8.1 14.7-9.8L14.7-9.8Q14.95-10.7 15.18-11.83 15.4-12.95 15.6-14.35L15.6-14.35Q15.8-15.45 15.98-16.7 16.15-17.95 16.35-19.38 16.55-20.8 16.8-22.4L16.8-22.4Q16.9-23.25 17.63-24.13 18.35-25 19.9-25L19.9-25 28.5-25Q29.7-25 30.5-24.25 31.3-23.5 31.35-22.35L31.35-22.35 31.5-6.5 31.85-6.5Q32.8-6.5 33.1-7.6 33.4-8.7 33.75-10.4L33.75-10.4Q34.1-11.95 34.33-13.33 34.55-14.7 34.75-16.1L34.75-16.1Q35.05-18.05 35.27-20.18 35.5-22.3 35.7-25L35.7-25 46.1-25Q45.9-23.25 45.65-21.5 45.4-19.75 45.1-18.05 44.8-16.35 44.4-14.7L44.4-14.7Q43.9-12.4 43.28-10.28 42.65-8.15 41.95-6.4L41.95-6.4Q41.05-4.15 39.83-2.73 38.6-1.3 36.55-0.65 34.5 0 30.95 0L30.95 0 27.1 0Q25.85 0 25-0.83 24.15-1.65 24.15-2.8L24.15-2.8 24.25-18.8 23.65-18.8Q23.6-18.4 23.48-17.45 23.35-16.5 23.15-15.28 22.95-14.05 22.7-12.65L22.7-12.65Q22.55-11.7 22.35-10.7 22.15-9.7 21.95-8.8 21.75-7.9 21.55-7.1L21.55-7.1Q20.65-3.7 19.2-2.2 17.75-0.7 15.8-0.35 13.85 0 11.3 0L11.3 0 5.8 0Q4.55 0 3.75-0.83 2.95-1.65 2.85-2.8L2.85-2.8 2.05-25.05ZM62.55-25.7L62.55-25.7Q67.75-25.7 70.6-24.63 73.45-23.55 74.42-21.5 75.4-19.45 74.95-16.4L74.95-16.4Q74.65-14.15 73.4-12.9 72.15-11.65 69.92-11.05 67.7-10.45 64.3-10.2L64.3-10.2 51-9.2 51.65-14.15 61.55-15.15Q62.6-15.25 63.3-15.43 64-15.6 64.42-16.05 64.85-16.5 64.95-17.45L64.95-17.45Q65-18 64.85-18.35 64.7-18.7 64.2-18.85 63.7-19 62.65-18.95L62.65-18.95Q61.6-18.95 60.9-18.68 60.2-18.4 59.75-17.78 59.3-17.15 58.97-16 58.65-14.85 58.35-13.05L58.35-13.05Q57.95-10.6 58.07-9.4 58.2-8.2 59.05-7.83 59.9-7.45 61.6-7.45L61.6-7.45Q62.65-7.45 64.47-7.53 66.3-7.6 68.32-7.73 70.35-7.85 71.85-8L71.85-8 72.55-1.6Q70.8-0.8 68.8-0.3 66.8 0.2 64.75 0.4 62.7 0.6 60.7 0.6L60.7 0.6Q55 0.6 51.95-0.95 48.9-2.5 47.9-5.48 46.9-8.45 47.3-12.7L47.3-12.7Q47.7-16.7 48.9-19.25 50.1-21.8 52-23.2 53.9-24.6 56.55-25.15 59.2-25.7 62.55-25.7ZM97.7-25.7L97.7-25.7Q100.8-25.7 102.62-24.25 104.45-22.8 105.02-19.85 105.59-16.9 104.9-12.4L104.9-12.4Q104.55-9.95 103.72-7.63 102.9-5.3 101.3-3.45 99.7-1.6 97.02-0.5 94.34 0.6 90.25 0.6L90.25 0.6Q88.84 0.6 86.87 0.48 84.9 0.35 82.8 0.1 80.7-0.15 78.9-0.55 77.09-0.95 76.05-1.5L76.05-1.5 84.75-7.05Q85.2-6.85 86.09-6.7 87-6.55 88.02-6.48 89.05-6.4 89.75-6.45L89.75-6.45Q90.75-6.5 91.45-6.83 92.15-7.15 92.67-7.88 93.2-8.6 93.57-9.9 93.95-11.2 94.25-13.15L94.25-13.15Q94.55-14.95 94.52-15.9 94.5-16.85 94.15-17.2 93.8-17.55 93-17.55L93-17.55Q91.3-17.55 89.97-16.78 88.65-16 87.2-15L87.2-15 85.84-18.35Q86.8-19.9 88.02-21.23 89.25-22.55 90.72-23.55 92.2-24.55 93.95-25.13 95.7-25.7 97.7-25.7ZM80.75-35L91.3-35 90.5-28.85Q90.3-27 89.87-25.23 89.45-23.45 88.59-21.5L88.59-21.5 89.5-21.1 86.55-1 76.05-1.5 80.75-35ZM128.84-25.7L128.84-25.7Q132.94-25.7 136.39-25.13 139.84-24.55 141.64-23.25L141.64-23.25 140.69-19.35Q138.94-19.35 137.42-19.35 135.89-19.35 133.39-19.35L133.39-19.35Q132.29-19.35 131.54-19.13 130.79-18.9 130.31-18.3 129.84-17.7 129.52-16.55 129.19-15.4 128.94-13.5L128.94-13.5Q128.74-11.7 128.64-10.48 128.54-9.25 128.89-8.65 129.24-8.05 130.24-8.1L130.24-8.1Q131.84-8.2 133.12-9 134.39-9.8 135.44-10.6L135.44-10.6 137.34-6.3Q136.74-5.6 135.62-4.45 134.49-3.3 132.97-2.15 131.44-1 129.64-0.2 127.84 0.6 125.79 0.6L125.79 0.6Q122.69 0.6 120.82-0.93 118.94-2.45 118.29-5.53 117.64-8.6 118.24-13.2L118.24-13.2Q118.74-16.95 119.72-19.4 120.69-21.85 122.07-23.23 123.44-24.6 125.17-25.15 126.89-25.7 128.84-25.7ZM138.09-35L148.59-35 143.64 0 135.34 0 135.04-6.7 134.09-7.25 136.39-24.2 136.84-25Q136.84-26.25 136.92-27.55 136.99-28.85 137.19-30.25L137.19-30.25 138.09-35ZM164.19-25.7L164.19-25.7Q169.39-25.7 172.24-24.63 175.09-23.55 176.06-21.5 177.04-19.45 176.59-16.4L176.59-16.4Q176.29-14.15 175.04-12.9 173.79-11.65 171.56-11.05 169.34-10.45 165.94-10.2L165.94-10.2 152.64-9.2 153.29-14.15 163.19-15.15Q164.24-15.25 164.94-15.43 165.64-15.6 166.06-16.05 166.49-16.5 166.59-17.45L166.59-17.45Q166.64-18 166.49-18.35 166.34-18.7 165.84-18.85 165.34-19 164.29-18.95L164.29-18.95Q163.24-18.95 162.54-18.68 161.84-18.4 161.39-17.78 160.94-17.15 160.61-16 160.29-14.85 159.99-13.05L159.99-13.05Q159.59-10.6 159.71-9.4 159.84-8.2 160.69-7.83 161.54-7.45 163.24-7.45L163.24-7.45Q164.29-7.45 166.11-7.53 167.94-7.6 169.96-7.73 171.99-7.85 173.49-8L173.49-8 174.19-1.6Q172.44-0.8 170.44-0.3 168.44 0.2 166.39 0.4 164.34 0.6 162.34 0.6L162.34 0.6Q156.64 0.6 153.59-0.95 150.54-2.5 149.54-5.48 148.54-8.45 148.94-12.7L148.94-12.7Q149.34-16.7 150.54-19.25 151.74-21.8 153.64-23.2 155.54-24.6 158.19-25.15 160.84-25.7 164.19-25.7ZM196.34-25L207.79-25Q207.54-23.15 207.14-21.23 206.74-19.3 206.29-17.53 205.84-15.75 205.34-14.3L205.34-14.3Q204.29-11.05 203.19-8.68 202.09-6.3 201.49-5.2L201.49-5.2Q200.24-2.95 198.86-1.85 197.49-0.75 195.79-0.38 194.09 0 191.74 0L191.74 0 184.34 0Q183.14 0 182.31-0.78 181.49-1.55 181.39-2.65L181.39-2.65 178.74-25 190.24-25 190.09-6.3 190.54-6.3Q191.59-6.3 192.04-6.93 192.49-7.55 193.29-9.5L193.29-9.5Q193.84-10.9 194.26-12.4 194.69-13.9 195.09-15.9L195.09-15.9Q195.64-18.45 195.91-20.95 196.19-23.45 196.34-25L196.34-25ZM223.78-25.7L223.78-25.7Q228.98-25.7 231.83-24.63 234.68-23.55 235.66-21.5 236.63-19.45 236.18-16.4L236.18-16.4Q235.88-14.15 234.63-12.9 233.38-11.65 231.16-11.05 228.93-10.45 225.53-10.2L225.53-10.2 212.23-9.2 212.88-14.15 222.78-15.15Q223.83-15.25 224.53-15.43 225.23-15.6 225.66-16.05 226.08-16.5 226.18-17.45L226.18-17.45Q226.23-18 226.08-18.35 225.93-18.7 225.43-18.85 224.93-19 223.88-18.95L223.88-18.95Q222.83-18.95 222.13-18.68 221.43-18.4 220.98-17.78 220.53-17.15 220.21-16 219.88-14.85 219.58-13.05L219.58-13.05Q219.18-10.6 219.31-9.4 219.43-8.2 220.28-7.83 221.13-7.45 222.83-7.45L222.83-7.45Q223.88-7.45 225.71-7.53 227.53-7.6 229.56-7.73 231.58-7.85 233.08-8L233.08-8 233.78-1.6Q232.03-0.8 230.03-0.3 228.03 0.2 225.98 0.4 223.93 0.6 221.93 0.6L221.93 0.6Q216.23 0.6 213.18-0.95 210.13-2.5 209.13-5.48 208.13-8.45 208.53-12.7L208.53-12.7Q208.93-16.7 210.13-19.25 211.33-21.8 213.23-23.2 215.13-24.6 217.78-25.15 220.43-25.7 223.78-25.7ZM242.08-35L252.53-35 248.78-8.9Q248.58-7.95 248.98-7.63 249.38-7.3 250.73-7.3L250.73-7.3 252.73-7.3 253.33-0.5Q252.53-0.05 251.16 0.2 249.78 0.45 248.41 0.58 247.03 0.7 246.18 0.7L246.18 0.7Q241.98 0.7 239.81-1.25 237.63-3.2 238.03-6.5L238.03-6.5 242.08-35ZM271.08-25.7L271.08-25.7Q276.08-25.7 279.15-24.35 282.23-23 283.38-20.03 284.53-17.05 283.83-12.05L283.83-12.05Q283.18-7.35 281.5-4.58 279.83-1.8 276.73-0.6 273.63 0.6 268.63 0.6L268.63 0.6Q263.68 0.6 260.58-0.73 257.48-2.05 256.28-5 255.08-7.95 255.78-12.85L255.78-12.85Q256.48-17.65 258.13-20.45 259.78-23.25 262.93-24.48 266.08-25.7 271.08-25.7ZM270.88-18.6L270.88-18.6Q269.53-18.6 268.78-18.1 268.03-17.6 267.58-16.2 267.13-14.8 266.73-12.05L266.73-12.05Q266.43-9.75 266.45-8.55 266.48-7.35 267.1-6.93 267.73-6.5 269.03-6.5L269.03-6.5Q270.33-6.5 271.03-7 271.73-7.5 272.15-8.88 272.58-10.25 272.98-12.85L272.98-12.85Q273.33-15.25 273.28-16.48 273.23-17.7 272.68-18.15 272.13-18.6 270.88-18.6ZM307.48-25.6L307.48-25.6Q310.33-25.6 312.08-24.03 313.83-22.45 314.45-19.4 315.08-16.35 314.48-11.8L314.48-11.8Q313.98-7.9 312.93-5.45 311.88-3 310.38-1.68 308.88-0.35 306.98 0.18 305.08 0.7 302.83 0.7L302.83 0.7Q301.63 0.7 300 0.58 298.38 0.45 296.65 0.18 294.93-0.1 293.45-0.58 291.98-1.05 291.08-1.75L291.08-1.75 292.08-5.65Q293.83-5.65 295.35-5.65 296.88-5.65 299.33-5.65L299.33-5.65Q300.58-5.65 301.33-5.9 302.08-6.15 302.5-6.78 302.93-7.4 303.2-8.55 303.48-9.7 303.73-11.5L303.73-11.5Q304.08-13.95 304.1-15.25 304.13-16.55 303.78-17.05 303.43-17.55 302.63-17.55L302.63-17.55Q301.83-17.55 300.85-17.1 299.88-16.65 298.98-15.93 298.08-15.2 297.48-14.35L297.48-14.35 295.58-18.35Q296.08-19.1 297.15-20.3 298.23-21.5 299.8-22.73 301.38-23.95 303.33-24.78 305.28-25.6 307.48-25.6ZM289.08-25L297.43-25 297.43-18.7 298.53-17.9 296.48-1.35 295.93-0.55Q295.98 0.7 295.9 1.98 295.83 3.25 295.58 4.7L295.58 4.7 294.88 9 284.38 9 289.08-25ZM332.52-25.7L332.52-25.7Q337.72-25.7 340.57-24.63 343.42-23.55 344.4-21.5 345.37-19.45 344.92-16.4L344.92-16.4Q344.62-14.15 343.37-12.9 342.12-11.65 339.9-11.05 337.67-10.45 334.27-10.2L334.27-10.2 320.97-9.2 321.62-14.15 331.52-15.15Q332.57-15.25 333.27-15.43 333.97-15.6 334.4-16.05 334.82-16.5 334.92-17.45L334.92-17.45Q334.97-18 334.82-18.35 334.67-18.7 334.17-18.85 333.67-19 332.62-18.95L332.62-18.95Q331.57-18.95 330.87-18.68 330.17-18.4 329.72-17.78 329.27-17.15 328.95-16 328.62-14.85 328.32-13.05L328.32-13.05Q327.92-10.6 328.05-9.4 328.17-8.2 329.02-7.83 329.87-7.45 331.57-7.45L331.57-7.45Q332.62-7.45 334.45-7.53 336.27-7.6 338.3-7.73 340.32-7.85 341.82-8L341.82-8 342.52-1.6Q340.77-0.8 338.77-0.3 336.77 0.2 334.72 0.4 332.67 0.6 330.67 0.6L330.67 0.6Q324.97 0.6 321.92-0.95 318.87-2.5 317.87-5.48 316.87-8.45 317.27-12.7L317.27-12.7Q317.67-16.7 318.87-19.25 320.07-21.8 321.97-23.2 323.87-24.6 326.52-25.15 329.17-25.7 332.52-25.7ZM349.37-25L357.57-25 358.07-19.9 359.02-19.3 356.42 0 345.87 0 349.37-25ZM367.87-25.7L369.67-25.7 367.52-16.1 365.17-16.1Q363.82-16.1 362.17-15.95 360.52-15.8 357.82-15.35L357.82-15.35 357.42-21.2Q360.17-23.55 362.82-24.63 365.47-25.7 367.87-25.7L367.87-25.7Z" opacity="1" transform="matrix(1,0,0,1,0,0)" fill="white" class="slogan-text-1" id="SvgjsPath1207"></path></svg></g></svg></g></svg></g></svg></g></svg></g><defs><mask></mask></defs><mask><g id="SvgjsG1206"><svg viewBox="0 0 395.52 135.68228174167194" height="135.68228174167194" width="395.52"><g><svg viewBox="0 0 395.52 135.68228174167194" height="135.68228174167194" width="395.52"><g><svg viewBox="0 0 395.52 135.68228174167194" height="135.68228174167194" width="395.52"><g id="SvgjsG1205"><svg viewBox="0 0 395.52 135.68228174167194" height="135.68228174167194" width="395.52" id="SvgjsSvg1204"><g><svg viewBox="0 0 395.52 87.28560069144339" height="87.28560069144339" width="395.52"><g transform="matrix(1,0,0,1,0,0)"><svg width="395.52" viewBox="2 -37.8 173.54 38.3" height="87.28560069144339" data-palette-color="url(#b947ecbb-33c3-40e7-86af-555c2e05bee8)"><g class="wordmark-text-0" data-fill-palette-color="primary" id="SvgjsG1203"><path d="M3-15.05L2-20.55 3.55-23.6 13-23.6 13-21.45 13.45-21.15Q14-21.65 14.98-22.33 15.95-23 17.32-23.55 18.7-24.1 20.5-24.1L20.5-24.1Q24.85-24.1 26.85-21.1L26.85-21.1Q27.95-22.3 29.63-23.23 31.3-24.15 33.75-24.15L33.75-24.15Q38.25-24.15 40.75-21.6 43.25-19.05 43.25-14.45L43.25-14.45 43.25-8.05 44.3-3.05 43.25 0 32.2 0 32.2-12.6Q32.2-14.2 31.78-14.88 31.35-15.55 30.35-15.55L30.35-15.55Q29.4-15.55 28.95-14.7 28.5-13.85 28.5-12.55L28.5-12.55 28.5 0 17.45 0 17.45-12.65Q17.45-14.15 16.78-14.88 16.1-15.6 14.5-15.6L14.5-15.6 14-15.1 14 0 3 0 3-15.05ZM59.8 0.5L59.8 0.5Q53.7 0.5 50.1-2.4 46.5-5.3 46.5-11.8L46.5-11.8Q46.5-18.35 50.1-21.23 53.7-24.1 59.8-24.1L59.8-24.1Q66.1-24.1 69.55-21.23 73-18.35 73-11.8L73-11.8Q73-5.3 69.55-2.4 66.1 0.5 59.8 0.5ZM59.8-7.5L59.8-7.5Q60.75-7.5 61.35-8.28 61.95-9.05 61.95-11.8L61.95-11.8Q61.95-14.6 61.37-15.35 60.8-16.1 59.8-16.1L59.8-16.1Q58.85-16.1 58.2-15.35 57.55-14.6 57.55-11.8L57.55-11.8Q57.55-9.05 58.2-8.28 58.85-7.5 59.8-7.5ZM87.7 0L76.7 0 76.7-27.4 75.7-32.4 76.7-35.4 87.7-35.4 87.7-27.3 87.2-21.75 87.7-21.5Q87.95-21.75 88.8-22.38 89.65-23 91.05-23.58 92.45-24.15 94.2-24.15L94.2-24.15Q98.7-24.15 100.45-21.6 102.2-19.05 102.2-14.45L102.2-14.45 102.2-7.95 103.25-3.05 102.2 0 91.15 0 91.15-12.65Q91.15-14.25 90.5-14.93 89.84-15.6 88.2-15.6L88.2-15.6 87.7-15.1 87.7 0ZM117.69 0.5L117.69 0.5Q113.44 0.5 110.74-0.23 108.04-0.95 106.39-1.8L106.39-1.8 106.39-10.25Q108.49-9 111.24-8.25 113.99-7.5 116.19-7.5L116.19-7.5Q116.99-7.5 117.29-7.7 117.59-7.9 117.59-8.3L117.59-8.3Q117.59-8.7 116.62-9.18 115.64-9.65 113.29-10.35L113.29-10.35Q111.44-10.95 109.74-11.65 108.04-12.35 106.99-13.5 105.94-14.65 105.94-16.55L105.94-16.55Q105.94-19.45 107.42-21.1 108.89-22.75 111.52-23.43 114.14-24.1 117.49-24.1L117.49-24.1Q119.39-24.1 121.32-23.9 123.24-23.7 123.94-23.6L123.94-23.6 128.59-21.1 126.34-14.25 118.54-16.15Q116.94-16.15 116.94-15.4L116.94-15.4Q116.94-14.55 119.24-13.95L119.24-13.95Q121.59-13.3 123.84-12.55 126.09-11.8 127.54-10.53 128.99-9.25 128.99-7L128.99-7Q128.99-3.2 125.99-1.35 122.99 0.5 117.69 0.5ZM146.04-31.45L138.64-25.05 131.24-31.45 138.64-37.8 146.04-31.45ZM144.09 0L133.09 0 133.09-16.55 132.04-20.55 133.04-23.6 144.09-23.6 144.09 0ZM160.04 0L149.04 0 149.04-15.05 148.04-20.55 149.59-23.6 159.04-23.6 159.04-21.45 159.49-21.15Q160.04-21.65 161.01-22.33 161.99-23 163.39-23.55 164.79-24.1 166.54-24.1L166.54-24.1Q170.64-24.1 172.59-21.55 174.54-19 174.54-14.4L174.54-14.4 174.54-8 175.54-3 174.54 0 163.49 0 163.49-12.65Q163.49-14.15 162.81-14.88 162.14-15.6 160.54-15.6L160.54-15.6 160.04-15.1 160.04 0Z" fill="black"></path></g></svg></g></svg></g><g transform="matrix(1,0,0,1,0,107.89163616027659)"><svg viewBox="0 0 232.209792 27.79064558139535" height="27.79064558139535" width="232.209792"><g transform="matrix(1,0,0,1,0,0)"><svg width="232.209792" viewBox="2.05 -35 367.62 44" height="27.79064558139535" data-palette-color="url(#3eaec1cd-5574-4515-b22f-4f80d1c86fb7)"><path d="M2.05-25.05L12.7-25.05 12.3-6.5 12.6-6.5Q13.35-6.5 13.83-7.3 14.3-8.1 14.7-9.8L14.7-9.8Q14.95-10.7 15.18-11.83 15.4-12.95 15.6-14.35L15.6-14.35Q15.8-15.45 15.98-16.7 16.15-17.95 16.35-19.38 16.55-20.8 16.8-22.4L16.8-22.4Q16.9-23.25 17.63-24.13 18.35-25 19.9-25L19.9-25 28.5-25Q29.7-25 30.5-24.25 31.3-23.5 31.35-22.35L31.35-22.35 31.5-6.5 31.85-6.5Q32.8-6.5 33.1-7.6 33.4-8.7 33.75-10.4L33.75-10.4Q34.1-11.95 34.33-13.33 34.55-14.7 34.75-16.1L34.75-16.1Q35.05-18.05 35.27-20.18 35.5-22.3 35.7-25L35.7-25 46.1-25Q45.9-23.25 45.65-21.5 45.4-19.75 45.1-18.05 44.8-16.35 44.4-14.7L44.4-14.7Q43.9-12.4 43.28-10.28 42.65-8.15 41.95-6.4L41.95-6.4Q41.05-4.15 39.83-2.73 38.6-1.3 36.55-0.65 34.5 0 30.95 0L30.95 0 27.1 0Q25.85 0 25-0.83 24.15-1.65 24.15-2.8L24.15-2.8 24.25-18.8 23.65-18.8Q23.6-18.4 23.48-17.45 23.35-16.5 23.15-15.28 22.95-14.05 22.7-12.65L22.7-12.65Q22.55-11.7 22.35-10.7 22.15-9.7 21.95-8.8 21.75-7.9 21.55-7.1L21.55-7.1Q20.65-3.7 19.2-2.2 17.75-0.7 15.8-0.35 13.85 0 11.3 0L11.3 0 5.8 0Q4.55 0 3.75-0.83 2.95-1.65 2.85-2.8L2.85-2.8 2.05-25.05ZM62.55-25.7L62.55-25.7Q67.75-25.7 70.6-24.63 73.45-23.55 74.42-21.5 75.4-19.45 74.95-16.4L74.95-16.4Q74.65-14.15 73.4-12.9 72.15-11.65 69.92-11.05 67.7-10.45 64.3-10.2L64.3-10.2 51-9.2 51.65-14.15 61.55-15.15Q62.6-15.25 63.3-15.43 64-15.6 64.42-16.05 64.85-16.5 64.95-17.45L64.95-17.45Q65-18 64.85-18.35 64.7-18.7 64.2-18.85 63.7-19 62.65-18.95L62.65-18.95Q61.6-18.95 60.9-18.68 60.2-18.4 59.75-17.78 59.3-17.15 58.97-16 58.65-14.85 58.35-13.05L58.35-13.05Q57.95-10.6 58.07-9.4 58.2-8.2 59.05-7.83 59.9-7.45 61.6-7.45L61.6-7.45Q62.65-7.45 64.47-7.53 66.3-7.6 68.32-7.73 70.35-7.85 71.85-8L71.85-8 72.55-1.6Q70.8-0.8 68.8-0.3 66.8 0.2 64.75 0.4 62.7 0.6 60.7 0.6L60.7 0.6Q55 0.6 51.95-0.95 48.9-2.5 47.9-5.48 46.9-8.45 47.3-12.7L47.3-12.7Q47.7-16.7 48.9-19.25 50.1-21.8 52-23.2 53.9-24.6 56.55-25.15 59.2-25.7 62.55-25.7ZM97.7-25.7L97.7-25.7Q100.8-25.7 102.62-24.25 104.45-22.8 105.02-19.85 105.59-16.9 104.9-12.4L104.9-12.4Q104.55-9.95 103.72-7.63 102.9-5.3 101.3-3.45 99.7-1.6 97.02-0.5 94.34 0.6 90.25 0.6L90.25 0.6Q88.84 0.6 86.87 0.48 84.9 0.35 82.8 0.1 80.7-0.15 78.9-0.55 77.09-0.95 76.05-1.5L76.05-1.5 84.75-7.05Q85.2-6.85 86.09-6.7 87-6.55 88.02-6.48 89.05-6.4 89.75-6.45L89.75-6.45Q90.75-6.5 91.45-6.83 92.15-7.15 92.67-7.88 93.2-8.6 93.57-9.9 93.95-11.2 94.25-13.15L94.25-13.15Q94.55-14.95 94.52-15.9 94.5-16.85 94.15-17.2 93.8-17.55 93-17.55L93-17.55Q91.3-17.55 89.97-16.78 88.65-16 87.2-15L87.2-15 85.84-18.35Q86.8-19.9 88.02-21.23 89.25-22.55 90.72-23.55 92.2-24.55 93.95-25.13 95.7-25.7 97.7-25.7ZM80.75-35L91.3-35 90.5-28.85Q90.3-27 89.87-25.23 89.45-23.45 88.59-21.5L88.59-21.5 89.5-21.1 86.55-1 76.05-1.5 80.75-35ZM128.84-25.7L128.84-25.7Q132.94-25.7 136.39-25.13 139.84-24.55 141.64-23.25L141.64-23.25 140.69-19.35Q138.94-19.35 137.42-19.35 135.89-19.35 133.39-19.35L133.39-19.35Q132.29-19.35 131.54-19.13 130.79-18.9 130.31-18.3 129.84-17.7 129.52-16.55 129.19-15.4 128.94-13.5L128.94-13.5Q128.74-11.7 128.64-10.48 128.54-9.25 128.89-8.65 129.24-8.05 130.24-8.1L130.24-8.1Q131.84-8.2 133.12-9 134.39-9.8 135.44-10.6L135.44-10.6 137.34-6.3Q136.74-5.6 135.62-4.45 134.49-3.3 132.97-2.15 131.44-1 129.64-0.2 127.84 0.6 125.79 0.6L125.79 0.6Q122.69 0.6 120.82-0.93 118.94-2.45 118.29-5.53 117.64-8.6 118.24-13.2L118.24-13.2Q118.74-16.95 119.72-19.4 120.69-21.85 122.07-23.23 123.44-24.6 125.17-25.15 126.89-25.7 128.84-25.7ZM138.09-35L148.59-35 143.64 0 135.34 0 135.04-6.7 134.09-7.25 136.39-24.2 136.84-25Q136.84-26.25 136.92-27.55 136.99-28.85 137.19-30.25L137.19-30.25 138.09-35ZM164.19-25.7L164.19-25.7Q169.39-25.7 172.24-24.63 175.09-23.55 176.06-21.5 177.04-19.45 176.59-16.4L176.59-16.4Q176.29-14.15 175.04-12.9 173.79-11.65 171.56-11.05 169.34-10.45 165.94-10.2L165.94-10.2 152.64-9.2 153.29-14.15 163.19-15.15Q164.24-15.25 164.94-15.43 165.64-15.6 166.06-16.05 166.49-16.5 166.59-17.45L166.59-17.45Q166.64-18 166.49-18.35 166.34-18.7 165.84-18.85 165.34-19 164.29-18.95L164.29-18.95Q163.24-18.95 162.54-18.68 161.84-18.4 161.39-17.78 160.94-17.15 160.61-16 160.29-14.85 159.99-13.05L159.99-13.05Q159.59-10.6 159.71-9.4 159.84-8.2 160.69-7.83 161.54-7.45 163.24-7.45L163.24-7.45Q164.29-7.45 166.11-7.53 167.94-7.6 169.96-7.73 171.99-7.85 173.49-8L173.49-8 174.19-1.6Q172.44-0.8 170.44-0.3 168.44 0.2 166.39 0.4 164.34 0.6 162.34 0.6L162.34 0.6Q156.64 0.6 153.59-0.95 150.54-2.5 149.54-5.48 148.54-8.45 148.94-12.7L148.94-12.7Q149.34-16.7 150.54-19.25 151.74-21.8 153.64-23.2 155.54-24.6 158.19-25.15 160.84-25.7 164.19-25.7ZM196.34-25L207.79-25Q207.54-23.15 207.14-21.23 206.74-19.3 206.29-17.53 205.84-15.75 205.34-14.3L205.34-14.3Q204.29-11.05 203.19-8.68 202.09-6.3 201.49-5.2L201.49-5.2Q200.24-2.95 198.86-1.85 197.49-0.75 195.79-0.38 194.09 0 191.74 0L191.74 0 184.34 0Q183.14 0 182.31-0.78 181.49-1.55 181.39-2.65L181.39-2.65 178.74-25 190.24-25 190.09-6.3 190.54-6.3Q191.59-6.3 192.04-6.93 192.49-7.55 193.29-9.5L193.29-9.5Q193.84-10.9 194.26-12.4 194.69-13.9 195.09-15.9L195.09-15.9Q195.64-18.45 195.91-20.95 196.19-23.45 196.34-25L196.34-25ZM223.78-25.7L223.78-25.7Q228.98-25.7 231.83-24.63 234.68-23.55 235.66-21.5 236.63-19.45 236.18-16.4L236.18-16.4Q235.88-14.15 234.63-12.9 233.38-11.65 231.16-11.05 228.93-10.45 225.53-10.2L225.53-10.2 212.23-9.2 212.88-14.15 222.78-15.15Q223.83-15.25 224.53-15.43 225.23-15.6 225.66-16.05 226.08-16.5 226.18-17.45L226.18-17.45Q226.23-18 226.08-18.35 225.93-18.7 225.43-18.85 224.93-19 223.88-18.95L223.88-18.95Q222.83-18.95 222.13-18.68 221.43-18.4 220.98-17.78 220.53-17.15 220.21-16 219.88-14.85 219.58-13.05L219.58-13.05Q219.18-10.6 219.31-9.4 219.43-8.2 220.28-7.83 221.13-7.45 222.83-7.45L222.83-7.45Q223.88-7.45 225.71-7.53 227.53-7.6 229.56-7.73 231.58-7.85 233.08-8L233.08-8 233.78-1.6Q232.03-0.8 230.03-0.3 228.03 0.2 225.98 0.4 223.93 0.6 221.93 0.6L221.93 0.6Q216.23 0.6 213.18-0.95 210.13-2.5 209.13-5.48 208.13-8.45 208.53-12.7L208.53-12.7Q208.93-16.7 210.13-19.25 211.33-21.8 213.23-23.2 215.13-24.6 217.78-25.15 220.43-25.7 223.78-25.7ZM242.08-35L252.53-35 248.78-8.9Q248.58-7.95 248.98-7.63 249.38-7.3 250.73-7.3L250.73-7.3 252.73-7.3 253.33-0.5Q252.53-0.05 251.16 0.2 249.78 0.45 248.41 0.58 247.03 0.7 246.18 0.7L246.18 0.7Q241.98 0.7 239.81-1.25 237.63-3.2 238.03-6.5L238.03-6.5 242.08-35ZM271.08-25.7L271.08-25.7Q276.08-25.7 279.15-24.35 282.23-23 283.38-20.03 284.53-17.05 283.83-12.05L283.83-12.05Q283.18-7.35 281.5-4.58 279.83-1.8 276.73-0.6 273.63 0.6 268.63 0.6L268.63 0.6Q263.68 0.6 260.58-0.73 257.48-2.05 256.28-5 255.08-7.95 255.78-12.85L255.78-12.85Q256.48-17.65 258.13-20.45 259.78-23.25 262.93-24.48 266.08-25.7 271.08-25.7ZM270.88-18.6L270.88-18.6Q269.53-18.6 268.78-18.1 268.03-17.6 267.58-16.2 267.13-14.8 266.73-12.05L266.73-12.05Q266.43-9.75 266.45-8.55 266.48-7.35 267.1-6.93 267.73-6.5 269.03-6.5L269.03-6.5Q270.33-6.5 271.03-7 271.73-7.5 272.15-8.88 272.58-10.25 272.98-12.85L272.98-12.85Q273.33-15.25 273.28-16.48 273.23-17.7 272.68-18.15 272.13-18.6 270.88-18.6ZM307.48-25.6L307.48-25.6Q310.33-25.6 312.08-24.03 313.83-22.45 314.45-19.4 315.08-16.35 314.48-11.8L314.48-11.8Q313.98-7.9 312.93-5.45 311.88-3 310.38-1.68 308.88-0.35 306.98 0.18 305.08 0.7 302.83 0.7L302.83 0.7Q301.63 0.7 300 0.58 298.38 0.45 296.65 0.18 294.93-0.1 293.45-0.58 291.98-1.05 291.08-1.75L291.08-1.75 292.08-5.65Q293.83-5.65 295.35-5.65 296.88-5.65 299.33-5.65L299.33-5.65Q300.58-5.65 301.33-5.9 302.08-6.15 302.5-6.78 302.93-7.4 303.2-8.55 303.48-9.7 303.73-11.5L303.73-11.5Q304.08-13.95 304.1-15.25 304.13-16.55 303.78-17.05 303.43-17.55 302.63-17.55L302.63-17.55Q301.83-17.55 300.85-17.1 299.88-16.65 298.98-15.93 298.08-15.2 297.48-14.35L297.48-14.35 295.58-18.35Q296.08-19.1 297.15-20.3 298.23-21.5 299.8-22.73 301.38-23.95 303.33-24.78 305.28-25.6 307.48-25.6ZM289.08-25L297.43-25 297.43-18.7 298.53-17.9 296.48-1.35 295.93-0.55Q295.98 0.7 295.9 1.98 295.83 3.25 295.58 4.7L295.58 4.7 294.88 9 284.38 9 289.08-25ZM332.52-25.7L332.52-25.7Q337.72-25.7 340.57-24.63 343.42-23.55 344.4-21.5 345.37-19.45 344.92-16.4L344.92-16.4Q344.62-14.15 343.37-12.9 342.12-11.65 339.9-11.05 337.67-10.45 334.27-10.2L334.27-10.2 320.97-9.2 321.62-14.15 331.52-15.15Q332.57-15.25 333.27-15.43 333.97-15.6 334.4-16.05 334.82-16.5 334.92-17.45L334.92-17.45Q334.97-18 334.82-18.35 334.67-18.7 334.17-18.85 333.67-19 332.62-18.95L332.62-18.95Q331.57-18.95 330.87-18.68 330.17-18.4 329.72-17.78 329.27-17.15 328.95-16 328.62-14.85 328.32-13.05L328.32-13.05Q327.92-10.6 328.05-9.4 328.17-8.2 329.02-7.83 329.87-7.45 331.57-7.45L331.57-7.45Q332.62-7.45 334.45-7.53 336.27-7.6 338.3-7.73 340.32-7.85 341.82-8L341.82-8 342.52-1.6Q340.77-0.8 338.77-0.3 336.77 0.2 334.72 0.4 332.67 0.6 330.67 0.6L330.67 0.6Q324.97 0.6 321.92-0.95 318.87-2.5 317.87-5.48 316.87-8.45 317.27-12.7L317.27-12.7Q317.67-16.7 318.87-19.25 320.07-21.8 321.97-23.2 323.87-24.6 326.52-25.15 329.17-25.7 332.52-25.7ZM349.37-25L357.57-25 358.07-19.9 359.02-19.3 356.42 0 345.87 0 349.37-25ZM367.87-25.7L369.67-25.7 367.52-16.1 365.17-16.1Q363.82-16.1 362.17-15.95 360.52-15.8 357.82-15.35L357.82-15.35 357.42-21.2Q360.17-23.55 362.82-24.63 365.47-25.7 367.87-25.7L367.87-25.7Z" opacity="1" transform="matrix(1,0,0,1,0,0)" fill="black" class="slogan-text-1" id="SvgjsPath1202"></path></svg></g></svg></g></svg></g></svg></g></svg></g><defs><mask></mask></defs></svg><rect width="395.52" height="135.68228174167194" fill="black" stroke="none" visibility="hidden"></rect></g></mask></svg><rect width="395.52" height="135.68228174167194" fill="black" stroke="none" visibility="hidden"></rect></g></mask><linearGradient x1="0" x2="1" y1="0.548" y2="0.55" id="3eaec1cd-5574-4515-b22f-4f80d1c86fb7"><stop stop-color="#ff6cab" offset="0"></stop><stop stop-color="#7366ff" offset="1"></stop></linearGradient><rect width="395.52" height="135.68228174167194" fill="url(#3eaec1cd-5574-4515-b22f-4f80d1c86fb7)" mask="url(#07215a68-a0c8-4d8e-be82-14a68800930a)" data-fill-palette-color="secondary"></rect></svg><rect width="395.52" height="135.68228174167194" fill="none" stroke="none" visibility="hidden"></rect></g></svg></g></svg>